<?xml version="1.0" standalone="no"?>
<!DOCTYPE svg PUBLIC "-//W3C//DTD SVG 20010904//EN"
 "http://www.w3.org/TR/2001/REC-SVG-20010904/DTD/svg10.dtd">
<svg version="1.0" xmlns="http://www.w3.org/2000/svg"
 width="899.000000pt" height="292.000000pt" viewBox="0 0 899.000000 292.000000"
 preserveAspectRatio="xMidYMid meet">
<metadata>
Created by potrace 1.16, written by Peter Selinger 2001-2019
</metadata>
<g transform="translate(0.000000,292.000000) scale(0.100000,-0.100000)"
fill="#000000" stroke="none">
<path d="M1320 2914 c-201 -24 -353 -68 -525 -154 -409 -203 -698 -596 -777
-1055 -17 -101 -19 -147 -15 -290 6 -185 20 -263 72 -422 168 -504 615 -883
1145 -969 191 -31 446 -16 636 36 519 145 921 585 1031 1127 27 134 25 433 -5
570 -63 292 -186 517 -397 729 -279 279 -602 419 -990 429 -77 2 -156 1 -175
-1z m375 -40 c447 -76 836 -365 1039 -771 273 -544 176 -1189 -242 -1625 -206
-214 -439 -348 -724 -416 -103 -24 -131 -26 -313 -26 -181 0 -210 2 -311 26
-433 103 -779 375 -974 766 -183 368 -198 798 -41 1178 207 502 677 841 1231
888 71 6 247 -4 335 -20z"/>
<path d="M1482 2672 c15 -30 52 -82 59 -82 4 0 6 -7 3 -15 -4 -8 -13 -15 -21
-15 -8 0 -11 -4 -8 -10 12 -19 31 -10 42 20 6 17 7 28 2 24 -18 -11 -8 13 14
34 32 30 46 27 91 -18 33 -33 37 -41 26 -54 -7 -9 -21 -16 -31 -16 -11 0 -16
-5 -13 -13 2 -7 -7 -19 -21 -27 -21 -11 -27 -11 -43 3 -33 30 -50 15 -43 -40
1 -7 -7 -9 -21 -6 -22 5 -22 5 -4 -9 17 -14 18 -18 5 -46 -8 -18 -21 -32 -29
-33 -11 0 -11 -2 -2 -6 7 -3 19 0 27 7 11 9 21 6 49 -15 21 -16 37 -22 41 -16
9 15 68 14 83 -1 7 -7 12 -20 12 -29 0 -10 8 -31 17 -47 16 -28 16 -31 -1 -56
-14 -22 -24 -27 -59 -26 -23 0 -51 0 -62 0 -10 -1 -33 16 -50 36 -22 26 -37
35 -48 31 -12 -4 -17 -1 -17 9 0 11 6 15 18 11 43 -12 47 -12 47 7 0 13 -8 20
-24 21 -14 1 -36 16 -51 33 -35 42 -65 41 -106 -3 -17 -19 -41 -35 -53 -35
-14 0 -21 -6 -21 -19 0 -17 5 -19 34 -14 18 3 36 1 40 -5 4 -6 -2 -8 -14 -5
-15 4 -31 -6 -58 -35 -35 -38 -40 -40 -94 -41 -78 0 -108 33 -79 87 6 9 12 30
16 45 7 37 50 54 84 35 22 -12 27 -11 53 12 32 28 35 48 12 91 -10 21 -12 34
-5 43 6 7 6 17 0 26 -8 13 -12 11 -28 -7 -24 -29 -35 -29 -58 0 -10 13 -26 26
-36 30 -33 12 -31 37 4 72 41 41 52 42 95 10 l32 -25 21 40 c24 47 27 46 -89
24 -246 -46 -470 -170 -646 -357 -182 -193 -291 -424 -324 -687 -21 -175 -2
-353 56 -530 57 -174 183 -379 312 -508 202 -204 575 -337 894 -319 184 11
318 46 483 127 342 169 586 495 651 875 24 137 15 379 -19 508 -110 414 -429
745 -831 861 -102 30 -321 63 -314 48z m348 -292 c0 -13 86 -100 99 -100 6 0
11 5 11 11 0 5 5 7 10 4 6 -3 10 -2 10 3 0 6 9 8 20 5 24 -6 27 12 4 21 -9 4
-14 9 -10 13 3 3 14 -1 25 -11 16 -15 19 -15 31 -1 10 13 9 15 -8 15 -15 0
-19 5 -15 20 7 28 39 25 65 -6 21 -23 24 -24 35 -8 7 10 19 14 28 10 13 -4 15
-16 12 -53 -2 -26 -9 -49 -16 -51 -11 -4 -10 -6 0 -13 11 -7 10 -9 -5 -9 -12
0 -16 -5 -12 -15 3 -8 1 -15 -5 -15 -6 0 -7 -5 -4 -10 3 -6 -1 -13 -9 -16 -26
-10 -19 -19 33 -47 27 -15 54 -34 61 -42 14 -17 40 -20 40 -5 0 6 -11 27 -25
48 -35 54 -42 111 -17 142 19 23 23 24 53 13 17 -7 36 -10 42 -6 6 3 7 1 3 -5
-4 -7 -2 -12 5 -12 10 0 10 -3 1 -12 -7 -7 -12 -20 -12 -29 0 -19 -33 -36 -38
-20 -2 6 -10 11 -17 11 -8 0 -16 4 -19 9 -10 15 6 43 20 37 8 -3 14 -1 14 5 0
6 -10 9 -22 7 -18 -2 -24 -11 -26 -36 -2 -18 1 -39 6 -45 5 -7 21 -34 36 -61
25 -45 26 -50 11 -72 -8 -13 -22 -24 -30 -24 -8 0 -15 -4 -15 -9 0 -5 -9 -13
-20 -16 -21 -7 -27 -34 -11 -51 15 -15 -11 -41 -61 -63 -55 -23 -82 -21 -86 6
-3 17 4 22 35 28 21 3 45 10 53 15 13 8 12 11 -5 24 -18 13 -19 18 -8 46 12
31 8 60 -7 60 -4 0 -11 -16 -14 -35 -4 -21 -13 -35 -21 -35 -8 0 -15 -4 -15
-10 0 -5 -14 -4 -32 4 -18 8 -45 19 -60 25 -17 6 -28 18 -28 30 0 30 15 33 54
10 32 -18 37 -19 42 -5 3 9 18 16 33 17 25 1 24 1 -9 15 -19 8 -52 34 -73 57
-22 23 -36 34 -33 25 10 -32 -2 -44 -39 -40 -20 2 -45 -2 -58 -10 -35 -23 -67
-28 -67 -12 0 8 -5 14 -11 14 -8 0 -8 5 1 15 10 12 9 15 -6 15 -18 1 -18 1 -1
14 13 10 15 15 5 19 -7 2 -10 7 -6 11 3 4 20 0 37 -8 40 -21 80 -20 116 4 21
14 25 20 13 20 -10 0 -29 18 -43 40 -14 22 -33 41 -43 41 -59 6 -69 9 -47 19
17 7 17 9 3 9 -22 1 -24 21 -3 21 9 0 12 6 9 15 -5 11 -2 13 10 9 12 -5 15 -2
10 10 -3 9 -1 16 5 16 6 0 11 -4 11 -10z m-925 -160 c3 -5 -1 -10 -10 -10 -27
0 -6 -20 23 -21 l27 -1 -30 -8 c-16 -4 -54 -8 -84 -9 l-54 -1 40 -29 c21 -15
56 -48 76 -71 27 -32 41 -41 57 -37 18 5 20 1 20 -41 0 -51 2 -49 -75 -55 -29
-2 -30 -1 -33 51 -3 47 -5 52 -26 52 -28 0 -36 -17 -36 -71 0 -34 -3 -39 -24
-39 -12 0 -37 5 -55 11 -28 10 -31 15 -31 54 0 24 5 47 10 50 6 3 10 35 10 70
0 35 -4 67 -10 70 -5 3 -10 12 -10 20 0 11 21 15 93 18 50 1 97 4 104 5 6 1
15 -2 18 -8z m612 -150 c58 -35 63 -140 7 -176 -36 -24 -40 -10 -12 44 l25 48
-31 37 c-32 39 -63 48 -72 22 -4 -8 -17 -15 -29 -15 -13 0 -26 -4 -29 -8 -10
-16 7 -52 24 -52 11 0 20 -10 24 -26 5 -20 10 -23 20 -15 16 14 26 4 26 -24 0
-21 62 -75 86 -75 15 0 40 -31 49 -60 l7 -25 -24 23 c-32 29 -69 28 -123 -3
-36 -21 -47 -24 -67 -15 -13 6 -29 20 -36 30 -10 17 -8 22 16 34 27 15 27 15
3 16 -18 0 -22 4 -18 20 3 11 2 22 -2 24 -14 9 -11 147 4 169 34 49 98 60 152
27z m913 -145 c7 -9 21 -13 30 -10 17 5 18 -2 14 -78 l-4 -83 72 0 72 1 14
-55 c10 -37 15 -117 16 -240 1 -194 -7 -251 -56 -393 -28 -84 -106 -237 -119
-237 -21 0 -110 72 -144 116 -18 25 -42 65 -52 89 -10 25 -22 44 -27 42 -5 -2
-23 -39 -39 -83 -16 -43 -32 -81 -34 -84 -9 -10 -44 49 -74 125 -51 133 -52
135 -78 135 -17 0 -22 -4 -17 -15 7 -20 -108 -290 -184 -430 -33 -60 -90 -170
-127 -242 -77 -151 -61 -143 -180 -87 -142 67 -277 198 -408 394 -76 113 -191
323 -225 409 -15 38 -30 61 -40 61 -11 0 -53 -88 -139 -292 -68 -161 -127
-297 -131 -301 -4 -4 -32 23 -63 60 -95 116 -167 261 -214 428 -31 112 -42
343 -23 478 l12 87 62 0 62 0 -1 54 c0 30 -4 58 -8 62 -14 14 -6 24 19 24 15
0 33 8 39 17 13 17 14 17 33 0 11 -10 28 -17 39 -15 12 2 17 -2 14 -12 -3 -14
-4 -75 -2 -110 1 -12 21 -15 120 -15 l119 -1 -16 26 c-22 34 -29 38 -57 32
-16 -3 -27 2 -35 18 -10 19 -9 22 9 27 17 4 19 8 10 19 -9 11 -8 14 5 14 10 0
14 5 11 10 -3 6 -2 10 4 10 6 0 33 -23 60 -52 46 -48 50 -50 66 -34 10 10 26
15 39 11 11 -2 15 -2 9 1 -7 3 -13 18 -13 32 l1 27 15 -28 c8 -16 21 -26 27
-24 17 5 15 30 -3 34 -13 4 -13 3 0 -6 8 -6 10 -11 4 -11 -19 0 -23 12 -11 31
9 15 19 17 52 12 22 -3 45 -10 52 -15 7 -5 17 -7 22 -4 14 9 18 -3 22 -59 3
-38 1 -49 -9 -47 -8 1 -11 -2 -7 -8 11 -19 35 -10 41 15 7 30 43 42 73 25 12
-6 25 -8 30 -6 10 7 24 -22 16 -34 -10 -16 69 -8 82 9 10 13 15 14 30 3 10 -7
25 -15 33 -18 21 -7 42 -68 45 -134 2 -52 20 -149 29 -157 9 -9 118 18 141 34
14 10 30 36 36 58 6 22 15 56 21 76 6 20 9 57 7 83 -2 25 -2 47 1 47 15 4 287
5 298 1 6 -2 12 -13 12 -24 0 -13 -4 -17 -12 -11 -24 14 -48 13 -48 -3 0 -13
16 -15 115 -13 63 2 117 0 121 -4 4 -4 0 -7 -10 -7 -28 0 -9 -17 25 -22 25 -4
33 -1 37 14 2 10 8 18 12 18 5 0 6 9 3 20 -3 11 -9 17 -14 14 -5 -3 -9 2 -9
10 0 17 7 18 123 19 63 1 73 6 67 32 -1 6 -4 38 -6 72 -3 61 -3 62 21 53 19
-7 24 -5 28 11 6 23 30 25 47 4z"/>
<path d="M380 2340 c-23 -23 -25 -39 -9 -73 24 -53 88 -61 122 -16 48 66 -55
147 -113 89z"/>
<path d="M87 1582 c-18 -19 -22 -59 -9 -78 10 -16 48 -34 70 -34 30 0 72 38
72 66 0 56 -94 89 -133 46z"/>
<path d="M8130 2899 c-122 -15 -247 -62 -344 -128 -91 -62 -194 -190 -248
-310 -94 -207 -121 -558 -61 -800 70 -281 239 -476 491 -562 96 -33 100 -34
272 -34 166 0 179 2 255 28 120 43 181 82 275 176 63 64 96 107 127 166 37 72
93 234 93 271 0 11 -34 14 -183 14 l-182 0 -25 -71 c-57 -170 -166 -256 -336
-267 -216 -13 -364 111 -421 355 -25 106 -25 387 0 485 62 251 202 367 426
356 68 -4 97 -10 139 -32 98 -50 162 -124 198 -230 l16 -46 184 0 184 0 0 23
c0 49 -33 156 -72 237 -52 109 -167 227 -273 282 -158 82 -329 111 -515 87z"/>
<path d="M5045 2884 c-171 -37 -317 -140 -380 -267 -88 -179 -64 -428 53 -551
102 -107 244 -165 606 -246 159 -37 209 -55 259 -100 82 -72 73 -212 -17 -287
-50 -41 -124 -64 -226 -70 -215 -14 -375 81 -404 240 l-7 37 -178 0 -179 0 5
-47 c20 -207 120 -361 287 -443 141 -70 211 -83 441 -84 229 -1 275 7 413 75
216 106 314 307 273 559 -17 102 -50 170 -110 230 -89 87 -219 141 -531 219
-286 72 -342 98 -381 177 -42 89 -5 179 96 229 57 28 67 30 180 30 67 0 138
-6 161 -13 90 -27 154 -96 176 -189 l13 -53 172 0 173 0 0 43 c0 23 -7 69 -15
100 -50 191 -190 327 -410 397 -92 30 -361 38 -470 14z"/>
<path d="M3112 2193 c4 -587 6 -664 21 -718 47 -162 132 -267 271 -335 121
-59 179 -72 361 -77 135 -4 175 -2 260 16 239 49 396 188 461 406 16 54 18
124 21 713 l4 652 -190 0 -190 0 -3 -632 -3 -633 -23 -50 c-44 -96 -120 -148
-240 -165 -177 -25 -306 47 -352 198 -19 61 -20 95 -20 673 l0 609 -191 0
-190 0 3 -657z"/>
<path d="M6540 2824 c-6 -14 -139 -386 -296 -827 -157 -441 -292 -819 -300
-839 l-13 -38 198 0 198 0 59 175 59 175 314 -2 314 -3 13 -40 c7 -22 31 -100
54 -172 l41 -133 199 0 c110 0 200 3 200 6 0 4 -136 393 -302 865 l-303 859
-213 0 -212 0 -10 -26z m319 -710 c56 -176 101 -324 101 -327 0 -10 -410 -9
-410 1 0 8 204 651 207 648 0 0 47 -145 102 -322z"/>
<path d="M3095 890 c-1 -3 -6 -24 -10 -47 -7 -47 3 -56 26 -23 11 15 30 21 82
26 l67 7 -2 -214 c-3 -211 -3 -214 -25 -224 -43 -19 -23 -25 82 -25 63 0 105
4 105 10 0 6 -10 10 -23 10 -45 0 -47 12 -47 233 l0 210 61 -7 c64 -6 89 -18
89 -42 0 -8 5 -14 10 -14 6 0 10 24 10 53 l0 52 -211 0 c-116 0 -212 -2 -214
-5z"/>
<path d="M4520 891 c-139 -31 -217 -152 -191 -297 23 -120 92 -182 231 -205
63 -10 162 -2 186 16 18 12 33 115 18 115 -5 0 -16 -15 -24 -33 -20 -44 -53
-59 -122 -54 -71 4 -127 39 -165 104 -24 41 -28 59 -28 123 0 62 4 83 25 119
31 53 81 81 147 81 72 -1 128 -30 143 -74 18 -55 30 -43 30 28 0 57 -2 64 -22
70 -38 11 -191 16 -228 7z"/>
<path d="M4988 893 c-82 -2 -148 -8 -148 -13 0 -5 12 -10 28 -12 l27 -3 0
-220 c0 -219 0 -220 -22 -230 -13 -5 -23 -13 -23 -17 0 -10 297 -10 303 0 11
19 17 102 8 102 -6 0 -14 -12 -17 -26 -10 -39 -88 -59 -135 -34 -17 9 -19 22
-19 106 l0 95 52 -3 c47 -3 54 -6 67 -33 l15 -30 7 25 c17 60 6 125 -16 90 -3
-5 -33 -10 -66 -10 l-59 0 0 85 0 85 39 0 c56 0 91 -15 91 -40 0 -11 5 -20 10
-20 6 0 10 8 10 18 0 9 3 34 6 55 4 20 3 36 -2 35 -5 -1 -75 -4 -156 -5z"/>
<path d="M5296 808 c-3 -50 -6 -155 -6 -233 0 -146 -5 -165 -42 -165 -10 0
-18 -4 -18 -10 0 -6 38 -10 95 -10 57 0 95 4 95 10 0 6 -11 10 -25 10 -13 0
-28 8 -33 18 -5 9 -12 84 -15 165 l-5 149 178 -184 c98 -101 181 -180 185
-176 4 4 9 105 12 225 5 252 6 263 33 263 11 0 20 5 20 10 0 6 -35 10 -85 10
-47 0 -85 -4 -85 -9 0 -5 12 -11 28 -13 27 -3 27 -4 35 -98 4 -52 6 -127 5
-165 l-3 -70 -175 182 c-96 101 -177 183 -181 183 -3 0 -9 -41 -13 -92z"/>
<path d="M5826 880 c-21 -75 -14 -102 15 -61 10 15 31 21 82 27 l67 6 -2 -218
c-3 -219 -3 -219 -25 -222 -13 -2 -23 -8 -23 -13 0 -5 47 -9 105 -9 63 0 105
4 105 10 0 6 -11 10 -25 10 -14 0 -29 8 -35 19 -6 12 -10 102 -10 222 l0 202
61 -7 c64 -6 89 -18 89 -42 0 -8 5 -14 10 -14 6 0 10 24 10 53 l0 52 -210 0
c-178 0 -211 -2 -214 -15z"/>
<path d="M6448 893 c-82 -2 -148 -8 -148 -13 0 -5 12 -10 28 -12 l27 -3 0
-220 c0 -219 0 -220 -22 -230 -13 -5 -23 -13 -23 -17 0 -10 297 -10 303 0 11
19 17 102 8 102 -6 0 -14 -12 -17 -26 -10 -39 -88 -59 -135 -34 -17 9 -19 22
-19 106 l0 95 52 -3 c47 -3 54 -6 67 -33 l15 -30 7 25 c17 60 6 125 -16 90 -3
-5 -33 -10 -66 -10 l-59 0 0 85 0 85 39 0 c56 0 91 -15 91 -40 0 -11 5 -20 10
-20 6 0 10 8 10 18 0 9 3 34 6 55 4 20 3 36 -2 35 -5 -1 -75 -4 -156 -5z"/>
<path d="M6757 893 c-4 -3 -7 -105 -7 -225 0 -227 -5 -258 -40 -258 -11 0 -20
-4 -20 -10 0 -6 37 -10 90 -10 53 0 90 4 90 10 0 6 -8 10 -19 10 -10 0 -23 6
-29 13 -6 6 -14 82 -18 167 l-7 155 178 -183 c97 -100 181 -182 185 -182 4 0
11 109 16 243 9 240 9 242 32 245 12 2 22 8 22 13 0 5 -41 9 -91 9 -57 0 -88
-4 -84 -10 3 -5 14 -10 24 -10 10 0 23 -6 28 -12 6 -7 13 -84 16 -171 l5 -157
-137 142 c-76 79 -154 162 -175 186 -39 42 -47 48 -59 35z"/>
<path d="M7378 663 c-90 -230 -94 -238 -126 -248 -55 -16 -36 -25 53 -25 50 0
85 4 85 10 0 6 -6 10 -14 10 -27 0 -28 20 -4 86 l23 65 74 -3 73 -3 24 -65
c13 -36 21 -73 18 -82 -5 -16 3 -18 80 -18 51 0 86 4 86 10 0 6 -9 10 -19 10
-33 0 -57 45 -147 271 -51 129 -91 219 -99 219 -8 0 -51 -97 -107 -237z"/>
<path d="M8687 893 c-2 -5 -43 -108 -91 -229 -48 -122 -95 -229 -105 -238 -25
-23 -88 -21 -101 3 -11 21 -15 398 -4 425 3 9 14 16 24 16 11 0 22 5 25 10 4
6 -30 10 -94 10 -56 0 -101 -4 -101 -9 0 -5 10 -11 23 -13 l22 -3 0 -225 c0
-210 -1 -225 -18 -228 -50 -10 -86 18 -184 140 l-55 69 36 39 c73 81 56 184
-37 219 -35 13 -277 15 -277 2 0 -5 12 -11 28 -13 l27 -3 0 -225 0 -225 -22
-3 c-13 -2 -23 -8 -23 -13 0 -5 45 -9 100 -9 60 0 100 4 100 10 0 6 -8 10 -18
10 -33 0 -42 21 -42 102 l0 78 29 0 c22 0 36 -9 54 -32 85 -117 105 -141 129
-154 21 -11 79 -14 263 -14 150 0 235 4 235 10 0 6 -9 10 -20 10 -26 0 -25 18
1 91 l22 59 72 0 72 0 27 -72 c16 -44 22 -74 16 -76 -5 -2 -8 -8 -4 -13 7 -12
174 -12 174 1 0 6 -8 10 -17 10 -36 0 -63 48 -149 266 -78 199 -102 243 -117
217z m-699 -66 c34 -36 45 -79 33 -124 -14 -53 -40 -75 -83 -71 l-33 3 -3 108
-3 107 34 0 c22 0 41 -8 55 -23z"/>
<path d="M3565 880 c3 -5 14 -10 24 -10 38 0 41 -18 41 -223 0 -205 -5 -237
-40 -237 -11 0 -20 -4 -20 -10 0 -6 42 -10 105 -10 63 0 105 4 105 10 0 6 -11
10 -25 10 -34 0 -45 27 -45 109 l0 71 33 0 c30 0 38 -7 84 -72 89 -128 78
-122 274 -126 115 -2 169 0 169 7 0 6 -11 11 -24 11 -44 0 -47 14 -44 241 3
213 3 214 26 217 12 2 22 8 22 13 0 5 -43 9 -95 9 -52 0 -95 -4 -95 -9 0 -5
10 -11 23 -13 22 -3 22 -4 25 -208 1 -113 0 -215 -3 -227 -7 -29 -47 -31 -91
-4 -26 16 -133 137 -158 178 -4 8 6 29 25 53 25 31 33 52 37 95 5 66 -12 100
-63 121 -41 17 -300 21 -290 4z m226 -40 c45 -25 63 -114 34 -170 -17 -32 -51
-46 -90 -36 -25 6 -25 8 -25 111 l0 105 31 0 c17 0 39 -5 50 -10z"/>
<path d="M5381 248 c-33 -18 -46 -60 -29 -95 10 -21 26 -31 68 -44 41 -12 55
-21 55 -35 0 -29 -60 -32 -75 -5 -14 28 -60 29 -60 2 0 -39 33 -64 93 -69 50
-4 58 -2 81 21 17 17 26 21 26 12 0 -25 37 -36 100 -29 l60 7 0 66 c0 90 -15
111 -79 111 -50 0 -64 -9 -75 -47 -6 -20 -4 -23 18 -23 14 0 29 7 34 16 5 9
17 14 27 13 30 -6 18 -23 -22 -32 -21 -4 -42 -12 -47 -17 -5 -5 -17 1 -28 15
-12 15 -42 31 -74 41 -41 12 -54 20 -52 32 4 22 51 27 68 8 16 -20 60 -21 60
-2 0 8 -8 24 -18 36 -22 27 -95 37 -131 18z"/>
<path d="M6033 250 c-42 -17 -65 -68 -60 -134 3 -51 8 -63 35 -87 45 -40 102
-40 142 0 26 26 30 27 35 11 11 -34 31 -41 94 -34 l61 7 0 76 c0 47 -5 82 -12
89 -18 18 -103 15 -122 -4 -24 -24 -20 -54 7 -55 l22 0 -22 -11 c-12 -6 -24
-18 -26 -27 -4 -14 -5 -13 -6 2 -2 26 -40 21 -63 -8 -40 -51 -88 -22 -88 54 0
72 45 105 85 61 10 -11 29 -20 42 -20 33 0 30 33 -8 64 -32 27 -74 33 -116 16z"/>
<path d="M7474 250 c-12 -4 -31 -21 -43 -36 -29 -37 -30 -130 0 -168 33 -42
54 -49 130 -41 l69 7 0 64 0 64 -55 0 c-52 0 -55 -1 -55 -25 0 -20 5 -25 25
-25 27 0 32 -9 13 -28 -37 -37 -93 6 -92 69 2 68 66 107 96 59 13 -21 68 -29
68 -9 0 55 -91 96 -156 69z"/>
<path d="M3150 150 c0 -94 2 -103 25 -125 17 -18 35 -25 64 -25 89 0 111 32
111 166 l0 84 -30 0 -30 0 0 -88 c0 -93 -8 -112 -46 -112 -29 0 -34 16 -34
116 l0 84 -30 0 -30 0 0 -100z"/>
<path d="M4400 217 c0 -32 -1 -32 -39 -29 -32 3 -42 -1 -60 -23 -35 -45 -20
-142 24 -159 24 -9 63 -7 69 2 3 5 19 7 36 4 23 -3 30 -1 30 13 0 15 3 14 18
-5 16 -20 23 -21 80 -14 l62 7 0 76 c0 47 -5 82 -12 89 -18 18 -103 15 -122
-4 -24 -24 -20 -54 7 -55 l22 0 -22 -11 c-12 -6 -24 -18 -26 -27 -3 -9 -5 26
-6 77 l-1 92 -30 0 c-27 0 -30 -3 -30 -33z"/>
<path d="M4750 217 c0 -32 -1 -32 -39 -29 -32 3 -42 -1 -60 -23 -35 -45 -20
-142 24 -159 24 -9 63 -7 69 2 3 5 19 7 36 4 l30 -4 0 121 0 121 -30 0 c-27 0
-30 -3 -30 -33z"/>
<path d="M5020 217 c0 -32 -1 -32 -39 -29 -32 3 -42 -1 -60 -23 -35 -45 -20
-142 24 -159 24 -9 63 -7 69 2 3 5 19 7 36 4 27 -4 30 -2 30 24 l1 29 13 -24
c26 -47 93 -55 131 -16 14 13 25 29 25 35 0 14 -36 13 -59 -2 -20 -12 -51 -5
-51 12 0 6 24 10 55 10 54 0 55 1 55 29 0 15 -9 40 -21 55 -16 21 -29 26 -64
26 -35 0 -48 -5 -64 -26 l-21 -27 0 57 c0 56 0 56 -30 56 -27 0 -30 -3 -30
-33z"/>
<path d="M7090 216 c0 -34 0 -34 -40 -29 -49 7 -75 -12 -84 -60 -8 -44 6 -87
35 -109 20 -15 35 -17 82 -12 l57 7 0 118 0 119 -25 0 c-22 0 -25 -4 -25 -34z"/>
<path d="M7990 136 c0 -97 2 -106 22 -120 29 -20 67 -20 96 0 18 12 22 25 22
65 0 46 -2 49 -25 49 -23 0 -25 -4 -25 -41 0 -33 -3 -40 -17 -37 -14 2 -19 15
-21 51 l-3 47 45 0 c39 0 46 3 46 20 0 17 -7 20 -45 20 -41 0 -45 2 -45 25 0
20 -5 25 -25 25 l-25 0 0 -104z"/>
<path d="M3360 99 c0 -88 0 -89 25 -89 24 0 25 3 25 59 0 66 18 94 45 71 10
-8 15 -31 15 -71 0 -56 1 -59 25 -59 24 0 25 2 25 74 0 96 -9 105 -95 105
l-65 -1 0 -89z"/>
<path d="M3591 178 c0 -7 12 -47 28 -88 25 -68 30 -75 57 -78 28 -3 30 0 61
88 l32 90 -29 0 c-25 0 -30 -5 -46 -52 l-17 -53 -15 53 c-13 47 -17 52 -43 52
-17 0 -29 -5 -28 -12z"/>
<path d="M3790 170 c-31 -31 -28 -113 5 -145 42 -43 134 -21 135 33 0 14 -46
16 -55 2 -9 -15 -42 -12 -49 5 -4 12 5 15 55 15 l61 0 -7 33 c-13 60 -31 77
-80 77 -32 0 -51 -6 -65 -20z"/>
<path d="M3950 100 c0 -89 0 -90 25 -90 24 0 25 3 25 53 0 52 12 77 36 77 7 0
15 -9 19 -20 4 -12 25 -26 56 -37 27 -10 49 -21 49 -25 0 -16 -23 -19 -45 -4
-55 36 -89 6 -39 -33 40 -31 112 -24 136 13 5 7 8 4 8 -6 0 -12 8 -18 25 -18
25 0 25 1 25 90 0 89 0 90 -25 90 -24 0 -25 -3 -25 -56 0 -50 -2 -54 -15 -40
-9 9 -34 20 -55 26 -22 6 -40 15 -40 20 0 13 37 13 45 0 10 -16 55 -12 55 4 0
29 -30 46 -80 46 -39 0 -52 -4 -64 -22 l-16 -22 0 22 c0 20 -5 22 -50 22 l-50
0 0 -90z"/>
<path d="M5710 99 l0 -89 30 0 30 0 0 64 c0 49 4 65 16 70 27 10 34 -3 34 -70
l0 -64 30 0 30 0 0 68 c0 98 -12 111 -100 110 l-70 0 0 -89z"/>
<path d="M6552 167 c-16 -17 -22 -36 -22 -69 0 -60 22 -88 77 -95 37 -5 46 -2
71 23 l29 29 25 -27 c48 -53 148 -28 148 36 0 30 -14 41 -67 55 -24 7 -43 16
-43 21 0 13 37 13 45 0 3 -5 17 -10 31 -10 17 0 24 5 24 20 0 26 -29 40 -83
40 -51 0 -70 -16 -65 -57 3 -27 15 -36 83 -63 25 -10 27 -13 13 -21 -18 -10
-48 -2 -48 12 0 5 -13 9 -29 9 -26 0 -29 4 -34 42 -7 54 -35 78 -91 78 -31 0
-48 -6 -64 -23z"/>
<path d="M7170 170 c-31 -31 -28 -113 5 -145 42 -43 134 -21 135 33 0 14 -46
16 -55 2 -9 -15 -42 -12 -49 5 -4 12 5 15 55 15 l61 0 -7 33 c-13 60 -31 77
-80 77 -32 0 -51 -6 -65 -20z"/>
<path d="M7640 125 c0 -101 30 -140 92 -119 13 4 35 6 51 5 15 -1 27 2 27 9 0
6 7 4 17 -5 13 -13 27 -16 61 -11 25 3 53 6 63 6 17 0 19 9 19 74 0 88 -12
106 -71 106 -53 0 -79 -15 -79 -45 0 -19 5 -25 23 -26 14 0 17 -2 7 -6 -8 -3
-21 -12 -27 -21 -11 -13 -13 -6 -13 41 0 56 0 57 -30 57 -29 0 -29 0 -32 -67
-3 -60 -5 -68 -23 -68 -18 0 -20 8 -23 68 -3 67 -3 67 -32 67 l-30 0 0 -65z"/>
<path d="M8160 170 c-31 -31 -28 -113 5 -145 42 -43 134 -21 135 33 0 14 -46
16 -55 2 -9 -15 -42 -12 -49 5 -4 12 5 15 55 15 l61 0 -7 33 c-13 60 -31 77
-80 77 -32 0 -51 -6 -65 -20z"/>
<path d="M8320 99 c0 -88 0 -89 25 -89 24 0 25 2 25 64 0 45 4 65 14 69 24 9
36 -15 36 -75 0 -55 1 -58 25 -58 24 0 25 2 25 64 0 67 10 86 35 66 10 -8 15
-32 15 -71 0 -56 1 -59 25 -59 24 0 25 2 25 73 0 101 -5 105 -142 105 l-108 0
0 -89z"/>
<path d="M8596 168 c-22 -31 -20 -48 6 -48 l22 0 -22 -16 c-15 -10 -22 -25
-22 -49 0 -46 22 -57 100 -48 l62 6 -4 72 c-4 90 -15 105 -79 105 -38 0 -51
-4 -63 -22z"/>
<path d="M8832 178 c-5 -7 -13 -23 -16 -35 -6 -20 -4 -23 18 -23 14 0 29 7 34
16 5 9 17 14 26 13 29 -7 18 -24 -20 -32 -51 -10 -64 -23 -64 -63 0 -45 24
-57 100 -48 l60 7 0 66 c0 90 -15 111 -79 111 -27 0 -53 -6 -59 -12z"/>
</g>
</svg>
